<?xml version="1.0" standalone="no"?>
<!DOCTYPE svg PUBLIC "-//W3C//DTD SVG 20010904//EN"
 "http://www.w3.org/TR/2001/REC-SVG-20010904/DTD/svg10.dtd">
<svg version="1.0" xmlns="http://www.w3.org/2000/svg"
 width="1600.000000pt" height="900.000000pt" viewBox="0 0 1600.000000 900.000000"
 preserveAspectRatio="xMidYMid meet">

<g transform="translate(0.000000,900.000000) scale(0.100000,-0.100000)"
fill="#036db4" stroke="none">
<path fill="#036db4" d="M2160 8732 c-30 -15 -63 -39 -74 -54 -27 -38 -27 -108 0 -145 55 -73
131 -88 550 -108 373 -17 443 -25 569 -66 159 -50 263 -128 335 -249 82 -137
75 106 78 -2560 2 -1656 0 -2408 -8 -2485 -9 -94 -16 -122 -49 -191 -108 -228
-299 -301 -831 -319 -480 -17 -616 -40 -648 -110 -7 -14 -12 -49 -12 -76 0
-44 4 -55 33 -84 62 -62 110 -69 447 -62 1451 31 1783 32 3210 6 349 -7 661
-9 692 -5 61 8 109 34 142 79 26 35 28 122 3 160 -39 60 -97 70 -512 87 -488
20 -608 36 -733 99 -157 79 -262 238 -282 423 -6 61 -10 545 -10 1288 l0 1190
220 0 220 0 0 -765 0 -765 -185 0 -185 0 0 -290 0 -290 1490 0 1490 0 0 700 0
700 -330 0 -330 0 0 -410 0 -410 -625 0 -625 0 0 695 0 695 655 0 655 0 0 70
0 70 470 0 470 0 57 -37 c82 -52 186 -98 278 -123 89 -24 357 -38 730 -40 408
-2 506 -18 575 -96 58 -67 62 -98 58 -566 l-3 -423 -28 -61 c-48 -104 -117
-152 -247 -173 -39 -7 -259 -11 -552 -11 l-488 0 0 340 0 340 -340 0 -340 0 0
-631 0 -632 938 6 c789 4 951 8 1027 21 137 24 231 53 335 103 151 73 278 213
346 381 59 146 58 137 62 672 4 523 -3 662 -38 791 -11 41 -23 89 -27 107 l-6
32 72 0 71 0 0 -1253 c0 -1372 3 -1300 -59 -1432 -71 -151 -212 -239 -446
-280 -49 -8 -231 -22 -405 -30 -436 -21 -504 -29 -577 -71 -52 -30 -63 -49
-63 -110 0 -43 4 -51 44 -90 66 -62 104 -68 431 -61 1024 23 1793 27 2560 15
440 -7 931 -13 1090 -13 l290 0 58 28 c65 32 86 59 94 114 8 59 -17 108 -68
133 -51 27 -138 35 -509 50 -570 22 -688 49 -831 190 -72 71 -116 147 -146
251 -17 61 -18 174 -18 2504 l0 2440 23 75 c33 105 66 162 132 224 67 64 149
108 255 135 111 29 205 39 495 51 462 18 535 26 599 68 104 67 88 191 -31 242
l-53 23 -760 -9 c-915 -11 -2108 -8 -2905 6 -548 9 -588 9 -634 -7 -27 -10
-65 -33 -84 -50 -33 -31 -34 -35 -30 -93 9 -131 97 -160 538 -175 466 -16 615
-45 773 -149 118 -78 205 -212 227 -346 6 -41 10 -421 10 -1041 l0 -976 -97
-6 c-54 -4 -152 -7 -218 -7 -112 0 -124 2 -183 30 -132 62 -180 72 -412 80
-118 5 -332 9 -475 10 -308 1 -433 11 -497 38 -59 26 -123 84 -151 136 -21 40
-22 53 -25 406 -4 409 1 464 52 555 25 45 43 65 83 87 94 53 144 58 636 58
l447 0 0 -321 0 -321 338 7 c185 4 338 8 338 9 1 0 4 272 8 604 l7 602 -338
-1 c-186 -1 -617 -4 -958 -8 l-620 -8 -85 -26 c-319 -97 -504 -282 -590 -588
-53 -193 -54 -1044 0 -1253 11 -44 20 -83 20 -88 0 -4 -157 -8 -350 -8 l-350
0 0 50 0 50 -655 0 -655 0 0 650 0 650 605 0 605 0 0 -385 0 -385 330 0 330 0
0 675 0 675 -1470 0 -1470 0 0 -290 0 -290 185 0 185 0 0 -695 0 -695 -220 0
-220 0 0 938 c0 543 4 985 10 1052 9 102 15 124 50 198 51 107 113 169 223
221 146 69 243 85 612 100 447 18 515 26 585 61 58 29 74 55 74 113 0 71 -23
110 -81 138 -47 23 -54 23 -318 21 -148 -1 -493 -7 -765 -12 -635 -12 -1378
-13 -2030 0 -283 5 -670 11 -860 14 l-345 5 -55 -27z"/>
<path d="M11954 2195 c-128 -76 -62 -238 96 -238 120 0 190 91 145 187 -35 74
-159 100 -241 51z"/>
<path fill="#fff" d="M2460 1775 c-217 -46 -323 -136 -359 -304 -16 -77 -25 -566 -13 -766
8 -135 14 -182 32 -229 45 -118 147 -195 310 -233 110 -26 455 -26 555 1 172
45 267 121 306 244 19 61 22 97 26 387 6 388 -6 611 -37 684 -42 95 -147 170
-294 207 -87 22 -437 28 -526 9z m358 -322 c15 -11 36 -35 47 -54 19 -32 20
-55 23 -366 3 -373 0 -397 -57 -454 -88 -88 -270 -52 -301 59 -6 22 -10 175
-10 372 0 305 2 339 19 376 17 37 52 71 91 87 8 4 48 5 88 3 54 -2 80 -8 100
-23z"/>
<path fill="#fff" d="M5520 1770 c-161 -34 -264 -100 -318 -205 -25 -49 -26 -57 -35 -320
-12 -382 -3 -672 23 -757 39 -126 139 -204 315 -245 63 -14 121 -18 275 -18
219 0 304 14 409 66 73 37 152 120 176 186 36 100 43 843 9 1008 -33 163 -171
266 -394 295 -125 16 -363 11 -460 -10z m373 -319 c64 -39 67 -58 67 -444 0
-336 0 -344 -22 -387 -33 -64 -91 -93 -175 -87 -74 5 -120 29 -148 77 -19 33
-20 51 -20 380 0 190 3 357 7 372 11 37 56 88 93 105 44 20 154 12 198 -16z"/>
<path fill="#fff" d="M9040 1776 c-138 -29 -256 -93 -303 -165 -45 -68 -59 -127 -69 -301
-14 -224 -3 -706 17 -783 52 -199 185 -281 497 -305 339 -27 595 59 673 224
34 72 45 199 44 544 0 338 -11 503 -40 569 -40 94 -139 165 -285 206 -82 23
-441 30 -534 11z m356 -322 c15 -11 37 -33 48 -48 20 -26 21 -42 24 -387 l3
-360 -24 -42 c-34 -58 -89 -87 -163 -87 -85 1 -139 28 -164 82 -18 40 -20 68
-20 388 0 339 0 347 23 390 33 67 82 92 174 88 54 -3 79 -9 99 -24z"/>
<path fill="#fff" d="M3510 1455 l0 -315 173 2 172 3 6 110 c8 152 35 197 123 212 l36 6 0
-456 0 -455 -30 -25 c-16 -14 -35 -27 -42 -29 -10 -3 -14 -40 -16 -136 l-4
-132 311 0 311 0 0 135 c0 125 -1 135 -19 135 -10 0 -30 11 -45 25 l-26 24 0
456 c0 451 0 455 20 455 37 0 99 -39 116 -73 12 -21 19 -68 23 -142 l6 -110
168 -3 167 -2 0 315 0 315 -725 0 -725 0 0 -315z"/>
<path fill="#fff" d="M6640 1643 l0 -128 29 -17 c16 -9 38 -29 48 -44 17 -26 18 -58 18
-454 0 -393 -1 -428 -18 -453 -10 -16 -31 -30 -47 -34 l-30 -5 0 -134 0 -134
270 0 270 0 0 123 c0 67 -4 127 -8 133 -4 6 -16 14 -28 18 -11 3 -31 17 -43
29 -21 23 -21 25 -19 418 l3 394 29 -90 c16 -49 89 -297 161 -550 l132 -460
49 -7 c27 -3 67 -7 90 -7 l40 -1 149 527 c81 291 152 535 156 543 10 18 10
-704 0 -740 -4 -14 -23 -36 -44 -49 l-37 -24 0 -129 0 -128 305 0 305 0 0 130
0 129 -30 16 c-66 34 -65 24 -68 500 l-3 432 38 32 c21 17 44 36 51 42 8 7 12
46 12 129 l0 120 -333 0 -333 0 -42 -162 c-134 -512 -177 -668 -182 -668 -6 0
-48 147 -173 600 l-62 225 -328 3 -327 2 0 -127z"/>
<path fill="#fff" d="M10090 1455 l0 -315 173 2 172 3 6 110 c8 152 35 197 123 212 l36 6
0 -456 0 -455 -30 -25 c-16 -14 -35 -27 -42 -29 -10 -3 -14 -40 -16 -136 l-4
-132 311 0 311 0 0 135 c0 125 -1 135 -19 135 -10 0 -30 11 -45 25 l-26 24 0
456 c0 451 0 455 20 455 37 0 99 -39 116 -73 12 -21 19 -68 23 -142 l6 -110
168 -3 167 -2 0 315 0 315 -725 0 -725 0 0 -315z"/>
<path fill="#fff" d="M11740 1647 l0 -124 37 -24 c21 -13 40 -35 44 -49 4 -14 7 -212 7
-440 0 -228 -3 -426 -7 -440 -4 -14 -23 -36 -44 -49 l-37 -24 0 -129 0 -128
310 0 310 0 0 129 0 130 -42 23 c-43 23 -43 24 -51 93 -4 39 -7 241 -5 450 3
347 5 383 21 408 10 16 31 30 47 34 l30 6 0 128 0 129 -310 0 -310 0 0 -123z"/>
<path fill="#fff" d="M12520 1647 l0 -123 45 -37 c55 -46 46 -19 220 -707 l132 -525 312
-9 c178 -5 316 -5 320 0 5 5 36 128 70 274 34 146 98 414 143 595 l81 330 43
41 44 41 0 122 0 121 -285 0 -285 0 0 -130 c0 -120 1 -130 19 -130 30 0 71
-39 71 -66 0 -47 -171 -864 -180 -864 -7 0 -31 102 -136 555 -35 154 -64 292
-64 307 0 29 40 68 71 68 18 0 19 10 19 130 l0 130 -320 0 -320 0 0 -123z"/>
</g>
</svg>
